<mxfile host="app.diagrams.net" modified="2024-06-27T02:04:00.843Z" agent="Mozilla/5.0 (Windows NT 10.0; Win64; x64) AppleWebKit/537.36 (KHTML, like Gecko) Chrome/126.0.0.0 Safari/537.36 Edg/126.0.0.0" etag="CEJgFlqRIX8Z_r-rvaLw" version="24.6.3" type="device">
  <diagram name="PÃ¡gina-1" id="x6sIVlV_I5YtojlarsNr">
    <mxGraphModel dx="933" dy="1032" grid="0" gridSize="10" guides="1" tooltips="1" connect="1" arrows="1" fold="1" page="0" pageScale="1" pageWidth="827" pageHeight="1169" math="0" shadow="0">
      <root>
        <mxCell id="0" />
        <mxCell id="1" parent="0" />
      </root>
    </mxGraphModel>
  </diagram>
</mxfile>
